<?xml version="1.0" encoding="utf-8"?>
<!-- Generator: Adobe Illustrator 17.0.0, SVG Export Plug-In . SVG Version: 6.00 Build 0)  -->
<!DOCTYPE svg PUBLIC "-//W3C//DTD SVG 1.1//EN" "http://www.w3.org/Graphics/SVG/1.1/DTD/svg11.dtd">
<svg version="1.1" id="Layer_1" xmlns="http://www.w3.org/2000/svg" xmlns:xlink="http://www.w3.org/1999/xlink" x="0px" y="0px"
	 width="908px" height="607px" viewBox="0 0 908 607" enable-background="new 0 0 908 607" xml:space="preserve">
<pattern  x="-15.5" y="710" width="28.8" height="28.801" patternUnits="userSpaceOnUse" id="_x31_0_dpi_80_x25_" viewBox="5.76 -34.559 28.8 28.801" overflow="visible">
	<g>
		<polygon fill="none" points="5.76,-34.559 34.56,-34.559 34.56,-5.758 5.76,-5.758 		"/>
		<g>
			<path fill="#231F20" d="M12.96-7.199c3.181,0,5.76-2.578,5.76-5.76c0-3.182-2.579-5.76-5.76-5.76c-3.182,0-5.76,2.578-5.76,5.76
				C7.2-9.777,9.778-7.199,12.96-7.199z"/>
			<path fill="#231F20" d="M27.36-7.199c3.181,0,5.76-2.578,5.76-5.76c0-3.182-2.579-5.76-5.76-5.76
				c-3.183,0-5.761,2.578-5.761,5.76C21.6-9.777,24.178-7.199,27.36-7.199z"/>
			<path fill="#231F20" d="M12.96-21.6c3.181,0,5.76-2.578,5.76-5.76c0-3.182-2.579-5.758-5.76-5.758
				c-3.182,0-5.76,2.576-5.76,5.758C7.2-24.178,9.778-21.6,12.96-21.6z"/>
			<path fill="#231F20" d="M27.36-21.6c3.181,0,5.76-2.578,5.76-5.76c0-3.182-2.579-5.758-5.76-5.758
				c-3.183,0-5.761,2.576-5.761,5.758C21.6-24.178,24.178-21.6,27.36-21.6z"/>
			<path fill="#231F20" d="M34.56,0c3.182,0,5.761-2.576,5.761-5.76c0-3.18-2.579-5.758-5.761-5.758c-3.182,0-5.76,2.578-5.76,5.758
				C28.8-2.576,31.378,0,34.56,0z"/>
			<path fill="#231F20" d="M20.16,0c3.181,0,5.76-2.576,5.76-5.76c0-3.18-2.579-5.758-5.76-5.758c-3.183,0-5.76,2.578-5.76,5.758
				C14.4-2.576,16.978,0,20.16,0z"/>
			<path fill="#231F20" d="M34.56-14.398c3.182,0,5.761-2.578,5.761-5.76s-2.579-5.76-5.761-5.76c-3.182,0-5.76,2.578-5.76,5.76
				S31.378-14.398,34.56-14.398z"/>
			<path fill="#231F20" d="M20.16-14.398c3.181,0,5.76-2.578,5.76-5.76s-2.579-5.76-5.76-5.76c-3.183,0-5.76,2.578-5.76,5.76
				S16.978-14.398,20.16-14.398z"/>
		</g>
		<g>
			<path fill="#231F20" d="M5.76,0c3.182,0,5.761-2.576,5.761-5.76c0-3.18-2.579-5.758-5.761-5.758S0-8.939,0-5.76
				C0-2.576,2.578,0,5.76,0z"/>
			<path fill="#231F20" d="M5.76-14.398c3.182,0,5.761-2.578,5.761-5.76s-2.579-5.76-5.761-5.76S0-23.34,0-20.158
				S2.578-14.398,5.76-14.398z"/>
		</g>
		<g>
			<path fill="#231F20" d="M34.56-28.799c3.182,0,5.761-2.578,5.761-5.76s-2.579-5.76-5.761-5.76c-3.182,0-5.76,2.578-5.76,5.76
				S31.378-28.799,34.56-28.799z"/>
			<path fill="#231F20" d="M20.16-28.799c3.181,0,5.76-2.578,5.76-5.76s-2.579-5.76-5.76-5.76c-3.183,0-5.76,2.578-5.76,5.76
				S16.978-28.799,20.16-28.799z"/>
		</g>
		<g>
			<path fill="#231F20" d="M5.76-28.799c3.182,0,5.761-2.578,5.761-5.76s-2.579-5.76-5.761-5.76S0-37.74,0-34.559
				S2.578-28.799,5.76-28.799z"/>
		</g>
	</g>
</pattern>
<g id="background">
</g>
<g id="badges">
	<g id="education">
		<g id="education-badge">
			<g>
				<g>
					<polyline fill="none" stroke="#F9F9F9" stroke-width="1.479" stroke-miterlimit="10" points="497.871,285.095 542.706,240.261 
						542.558,240.408 589.046,237.837 					"/>
				</g>
				<ellipse fill="#EFE80F" cx="675.607" cy="195.786" rx="98.279" ry="96.52"/>
			</g>
			<g id="education-details_1_">
				<rect x="617" y="181" fill="#EFE80F" width="118" height="56"/>
				<text transform="matrix(1 0 0 1 624.6454 203.0769)" fill="#F7F8F9" font-family="'Roboto'" font-size="18">CAMBRIDGE </text>
				<text transform="matrix(1 0 0 1 626.7734 227.9229)" fill="#F7F8F9" font-family="'Roboto'" font-size="18">UNIVERSITY</text>
			</g>
			<g id="education-title_1_">
				<rect x="631.562" y="127" fill="#EFE80F" width="77.5" height="38"/>
				
					<text id="education-title" transform="matrix(1 0 0 1 628.7052 155.611)" fill="#3A3A3A" font-family="'Roboto'" font-size="16">EDUCATION:</text>
			</g>
		</g>
	</g>
	<g id="lives">
		<g id="lives-badge">
			<g>
				<polyline fill="none" stroke="#F9F9F9" stroke-miterlimit="10" points="390,215.5 300.375,215.5 300.67,215.5 251.314,171.453 
									"/>
				<ellipse fill="#EFE80F" cx="220.275" cy="110.745" rx="93.008" ry="91.344"/>
			</g>
			<g id="lives-details_1_">
				<rect x="166" y="89" fill="#EFE80F" width="109" height="76"/>
				<text transform="matrix(1 0 0 1 151.616 109.0236)" fill="#FAFBFC" font-family="'Roboto'" font-size="18">EXETER DEVON</text>
				<text transform="matrix(1 0 0 1 148.406 133.8706)" fill="#3A3A3A" font-family="'Roboto'" font-size="18">LIVES:</text>
				<text transform="matrix(1 0 0 1 209.764 133.8706)" fill="#FAFBFC" font-family="'Roboto'" font-size="18"> BRIXTON</text>
				<text transform="matrix(1 0 0 1 183.897 158.7166)" fill="#FAFBFC" font-family="'Roboto'" font-size="18">LONDON</text>
			</g>
			<g id="lives-title_1_">
				<rect x="192.025" y="49" fill="#EFE80F" width="56.5" height="29"/>
				
					<text id="lives-title" transform="matrix(1 0 0 1 199.7715 72.0493)" fill="#3A3A3A" font-family="'Roboto'" font-size="15">LIVES: </text>
			</g>
		</g>
	</g>
	<g id="experience">
		<g id="experience-badge">
			
				<ellipse transform="matrix(0.1692 -0.9856 0.9856 0.1692 144.3283 1127.3848)" fill="#EFE80F" cx="740.873" cy="478.084" rx="114.187" ry="116.268"/>
			<g>
				<polyline fill="none" stroke="#F9F9F9" stroke-width="1.9044" stroke-miterlimit="10" points="497.575,525.215 564.242,478.084 
					564.023,478.239 623.581,485.105 				"/>
			</g>
			<g id="experience-title_1_">
				<rect x="691.154" y="399.349" fill="#EFE80F" width="92.559" height="28"/>
				
					<text id="experience-title" transform="matrix(1.1333 0 0 1 685.4332 419.5918)" fill="#3A3A3A" font-family="'Roboto'" font-size="15">EXPERIENCE: </text>
			</g>
			<g id="experience-details_1_">
				<rect x="649.326" y="443.647" fill="#EFE80F" width="191" height="92"/>
				<text transform="matrix(1 0 0 1 668.8838 468.0975)" fill="#F7F8F9" font-family="'Roboto'" font-size="18">CO-PRODUCTION, </text>
				<text transform="matrix(1 0 0 1 706.6858 492.9445)" fill="#F7F8F9" font-family="'Roboto'" font-size="18">TRAINING,</text>
				<text transform="matrix(1 0 0 1 649.3258 517.7905)" fill="#F7F8F9" font-family="'Roboto'" font-size="18">GROUP FACILITATION.</text>
			</g>
		</g>
	</g>
	<g id="training">
		<g id="training-badge">
			<g>
				<polyline fill="none" stroke="#F9F9F9" stroke-miterlimit="10" points="343,526.5 249.576,526.5 249.883,526.5 198.79,480.753 
									"/>
				<ellipse fill="#EFE80F" cx="140.223" cy="379.119" rx="121.41" ry="119.237"/>
			</g>
			<g id="training-title_1_">
				<rect x="91.085" y="296.867" fill="#EFE80F" width="88" height="28"/>
				
					<text id="training-title" transform="matrix(1.145 0 0 1 94.7467 318.2344)" fill="#3A3A3A" font-family="'Roboto'" font-size="15">TRAINING: </text>
			</g>
			<g id="training-details_1_">
				<rect x="44.775" y="360" fill="#EFE80F" width="169.5" height="64"/>
				<text transform="matrix(1 0 0 1 87.7589 366.5493)" fill="#F9F9F9" font-family="'Roboto'" font-size="18">FRONT-END</text>
				<text transform="matrix(1 0 0 1 42.5169 391.3963)" fill="#F9F9F9" font-family="'Roboto'" font-size="18">WEB DEVELOPMENT, </text>
				<text transform="matrix(1 0 0 1 43.6949 416.2423)" fill="#F9F9F9" font-family="'Roboto'" font-size="18">GENERAL ASSEMBLY</text>
			</g>
		</g>
	</g>
</g>
<g>
	<g>
		<path d="M540.872,422.785c0.418,4.084,0.639,8.224,0.639,12.415c0,66.231-53.69,119.925-119.925,119.925
			S301.661,501.435,301.661,435.2c0-3.816,0.185-7.585,0.533-11.314c1.776-26.054,7.522-52.127,20.308-78.177
			c14.645-29.83,20.079-59.68,20.868-89.522v-0.004c0-43.193,35.02-78.208,78.212-78.208c43.197,0,78.212,35.016,78.212,78.208
			c0,0.185-0.004,0.371-0.004,0.556c0.86,29.661,6.306,59.333,20.845,88.97C533.236,371.4,539.009,397.094,540.872,422.785z"/>
		<path fill="url(#_x31_0_dpi_80_x25_)" d="M540.872,422.785c0.418,4.084,0.639,8.224,0.639,12.415
			c0,66.231-53.69,119.925-119.925,119.925S301.661,501.435,301.661,435.2c0-3.816,0.185-7.585,0.533-11.314
			c1.776-26.054,7.522-52.127,20.308-78.177c14.645-29.83,20.079-59.68,20.868-89.522v-0.004c0-43.193,35.02-78.208,78.212-78.208
			c43.197,0,78.212,35.016,78.212,78.208c0,0.185-0.004,0.371-0.004,0.556c0.86,29.661,6.306,59.333,20.845,88.97
			C533.236,371.4,539.009,397.094,540.872,422.785z"/>
	</g>
	<path fill="#FCFCFC" stroke="#F7F8F9" stroke-width="1.479" stroke-miterlimit="10" d="M478.487,253.704
		c1.255,4.787,1.926,9.807,1.926,14.988c0,32.49-26.338,58.828-58.824,58.828c-32.49,0-58.828-26.338-58.828-58.828
		c0-5.182,0.671-10.201,1.93-14.988c1.654,0.118,3.319,0.182,5.004,0.182c22.743,0,42.419-11.141,51.894-27.352
		c9.471,16.208,29.152,27.352,51.89,27.352C475.168,253.885,476.833,253.822,478.487,253.704z"/>
	<path fill="#FCFCFC" stroke="#F7F8F9" stroke-width="1.479" stroke-miterlimit="10" d="M503.648,391.219
		c6.835,12.924,10.714,27.672,10.714,43.311c0,51.231-41.535,92.778-92.774,92.778s-92.778-41.543-92.778-92.778
		c0-15.639,3.879-30.383,10.718-43.311c36.038-2.182,66.752-20.055,82.06-45.32C436.888,371.164,467.61,389.037,503.648,391.219"/>
</g>
</svg>
