<?xml version="1.0" encoding="utf-8"?>
<!-- Generator: Adobe Illustrator 17.0.0, SVG Export Plug-In . SVG Version: 6.00 Build 0)  -->
<!DOCTYPE svg PUBLIC "-//W3C//DTD SVG 1.1//EN" "http://www.w3.org/Graphics/SVG/1.1/DTD/svg11.dtd">
<svg version="1.1" xmlns="http://www.w3.org/2000/svg" xmlns:xlink="http://www.w3.org/1999/xlink" x="0px" y="0px" width="908px"
	 height="607px" viewBox="0 0 908 607" enable-background="new 0 0 908 607" xml:space="preserve">
<g id="background">
</g>
<g id="badges">
	<g id="training-badge">
		<g>
			<polyline fill="none" stroke="#F9F9F9" stroke-miterlimit="10" points="343,526.5 249.576,526.5 249.883,526.5 198.79,480.753 
							"/>
			<ellipse fill="#EFE80F" cx="140.223" cy="379.119" rx="121.41" ry="119.237"/>
		</g>
		<g id="training-title_1_">
			<rect x="78" y="300" fill="#EFE80F" width="127" height="28"/>
			
				<text id="training-title" transform="matrix(1.145 0 0 1 81.662 321.3667)" fill="#3A3A3A" font-family="'Roboto-Bold'" font-size="22.1844">TRAINING: </text>
		</g>
		<g id="training-details_1_">
			<rect x="40" y="360" fill="#EFE80F" width="199" height="64"/>
			<text id="training-details" transform="matrix(1 0 0 1 82.9838 366.5493)"><tspan x="0" y="0" fill="#F9F9F9" font-family="'Roboto-Bold'" font-size="20.7054">FRONT-END</tspan><tspan x="-45.242" y="24.847" fill="#F9F9F9" font-family="'Roboto-Bold'" font-size="20.7054">WEB DEVELOPMENT, </tspan><tspan x="-44.064" y="49.693" fill="#F9F9F9" font-family="'Roboto-Bold'" font-size="20.7054">GENERAL ASSEMBLY</tspan></text>
		</g>
	</g>
	<g id="experience-badge">
		
			<ellipse transform="matrix(0.9856 0.1692 -0.1692 0.9856 90.863 -116.8454)" fill="#EFE80F" cx="731.034" cy="474.725" rx="116.266" ry="114.185"/>
		<g>
			<polyline fill="none" stroke="#F9F9F9" stroke-width="1.9044" stroke-miterlimit="10" points="497.575,525.215 564.242,478.084 
				564.023,478.239 623.581,485.105 			"/>
		</g>
		<g id="experience-title_1_">
			<rect x="648" y="396" fill="#EFE80F" width="166" height="28"/>
			
				<text id="experience-title" transform="matrix(1.1333 0 0 1 662.6826 417.2891)" fill="#3A3A3A" font-family="'Roboto-Bold'" font-size="18.5645">EXPERIENCE: </text>
		</g>
		<g id="experience-details_1_">
			<rect x="634" y="437" fill="#EFE80F" width="191" height="92"/>
			<text id="experience-details" transform="matrix(1 0 0 1 643.5253 461.4502)"><tspan x="0" y="0" fill="#F7F8F9" font-family="'Roboto-Bold'" font-size="20.7054">CO-PRODUCTION, </tspan><tspan x="37.802" y="24.847" fill="#F7F8F9" font-family="'Roboto-Bold'" font-size="20.7054">TRAINING,</tspan><tspan x="-19.558" y="49.693" fill="#F7F8F9" font-family="'Roboto-Bold'" font-size="20.7054">GROUP FACILITATION.</tspan></text>
		</g>
	</g>
	<g id="lives-badge">
		<g>
			<polyline fill="none" stroke="#F9F9F9" stroke-miterlimit="10" points="390,215.5 300.375,215.5 300.67,215.5 251.314,171.453 
							"/>
			<ellipse fill="#EFE80F" cx="220.275" cy="110.745" rx="93.008" ry="91.344"/>
		</g>
		<g id="lives-details_1_">
			<rect x="166" y="89" fill="#EFE80F" width="109" height="76"/>
			<text id="lives-details" transform="matrix(1 0 0 1 146.8041 109.023)"><tspan x="0" y="0" fill="#FAFBFC" font-family="'Roboto-Bold'" font-size="20.7054">EXETER DEVON</tspan><tspan x="-3.21" y="24.847" fill="#3A3A3A" font-family="'Roboto-Bold'" font-size="20.7054">LIVES:</tspan><tspan x="58.148" y="24.847" fill="#FAFBFC" font-family="'Roboto-Bold'" font-size="20.7054"> BRIXTON</tspan><tspan x="32.281" y="49.693" fill="#FAFBFC" font-family="'Roboto-Bold'" font-size="20.7054">LONDON</tspan></text>
		</g>
		<g id="lives-title_1_">
			<rect x="176" y="49" fill="#EFE80F" width="75" height="29"/>
			
				<text id="lives-title" transform="matrix(1 0 0 1 183.7465 72.0493)" fill="#3A3A3A" font-family="'Roboto-Bold'" font-size="23.6633">LIVES: </text>
		</g>
	</g>
	<g id="education-badge">
		<g>
			<g>
				<polyline fill="none" stroke="#F9F9F9" stroke-width="1.479" stroke-miterlimit="10" points="497.871,285.095 542.706,240.261 
					542.558,240.408 589.046,237.837 				"/>
			</g>
			<ellipse fill="#EFE80F" cx="675.607" cy="195.786" rx="98.279" ry="96.52"/>
		</g>
		<g id="education-details_1_">
			<rect x="617" y="181" fill="#EFE80F" width="118" height="56"/>
			<text id="education-details" transform="matrix(1 0 0 1 614.5781 202.8208)"><tspan x="0" y="0" fill="#F7F8F9" font-family="'Roboto-Bold'" font-size="20.7054">CAMBRIDGE </tspan><tspan x="2.128" y="24.846" fill="#F7F8F9" font-family="'Roboto-Bold'" font-size="20.7054">UNIVERSITY</tspan></text>
		</g>
		<g id="education-title_1_">
			<rect x="606" y="127" fill="#EFE80F" width="138" height="38"/>
			
				<text id="education-title" transform="matrix(1 0 0 1 607.748 155.6109)" fill="#3A3A3A" font-family="'Roboto-Bold'" font-size="23.6633">EDUCATION:</text>
		</g>
	</g>
</g>
<g id="doll">
	<g>
		<path fill="none" stroke="#F7F8F9" stroke-width="1.479" stroke-miterlimit="10" d="M540.872,422.785
			c0.418,4.084,0.639,8.224,0.639,12.415c0,66.231-53.69,119.925-119.925,119.925S301.661,501.435,301.661,435.2
			c0-3.816,0.185-7.585,0.533-11.314c1.776-26.054,7.522-52.127,20.308-78.177c14.645-29.83,20.079-59.68,20.868-89.522v-0.004
			c0-43.193,35.02-78.208,78.212-78.208c43.197,0,78.212,35.016,78.212,78.208c0,0.185-0.004,0.371-0.004,0.556
			c0.86,29.661,6.306,59.333,20.845,88.97C533.236,371.4,539.009,397.094,540.872,422.785z"/>
		<path fill="#FCFCFC" stroke="#F7F8F9" stroke-width="1.479" stroke-miterlimit="10" d="M478.487,253.704
			c1.255,4.787,1.926,9.807,1.926,14.988c0,32.49-26.338,58.828-58.824,58.828c-32.49,0-58.828-26.338-58.828-58.828
			c0-5.182,0.671-10.201,1.93-14.988c1.654,0.118,3.319,0.182,5.004,0.182c22.743,0,42.419-11.141,51.894-27.352
			c9.471,16.208,29.152,27.352,51.89,27.352C475.168,253.885,476.833,253.822,478.487,253.704z"/>
		<path fill="#FCFCFC" stroke="#F7F8F9" stroke-width="1.479" stroke-miterlimit="10" d="M503.648,391.219
			c6.835,12.924,10.714,27.672,10.714,43.311c0,51.231-41.535,92.778-92.774,92.778s-92.778-41.543-92.778-92.778
			c0-15.639,3.879-30.383,10.718-43.311c36.038-2.182,66.752-20.055,82.06-45.32C436.888,371.164,467.61,389.037,503.648,391.219"/>
	</g>
</g>
</svg>
